<?xml version="1.0" encoding="UTF-8"?>
<svg id="Layer_1" data-name="Layer 1" xmlns="http://www.w3.org/2000/svg" xmlns:xlink="http://www.w3.org/1999/xlink" viewBox="0 0 2041.7 2098.89">
  <defs>
    <style>
      .cls-1 {
        stroke: url(#linear-gradient-9);
      }

      .cls-1, .cls-2, .cls-3, .cls-4, .cls-5, .cls-6, .cls-7 {
        fill: none;
      }

      .cls-8 {
        letter-spacing: .2em;
      }

      .cls-9 {
        fill: url(#New_Gradient_Swatch);
        stroke: url(#linear-gradient);
      }

      .cls-2 {
        stroke: url(#linear-gradient-12);
      }

      .cls-3 {
        stroke: url(#linear-gradient-6);
      }

      .cls-10 {
        letter-spacing: .19em;
      }

      .cls-4 {
        stroke: url(#linear-gradient-8);
      }

      .cls-11 {
        fill: url(#linear-gradient-5);
      }

      .cls-11, .cls-12, .cls-13, .cls-14, .cls-15 {
        stroke-width: 0px;
      }

      .cls-5 {
        stroke: url(#linear-gradient-11);
      }

      .cls-16 {
        letter-spacing: .13em;
      }

      .cls-12 {
        fill: url(#linear-gradient-2);
      }

      .cls-13 {
        fill: url(#linear-gradient-3);
      }

      .cls-17 {
        letter-spacing: .19em;
      }

      .cls-18 {
        letter-spacing: .2em;
      }

      .cls-14, .cls-19 {
        fill: #fff;
      }

      .cls-19 {
        font-family: Calibri-Bold, Calibri;
        font-size: 79px;
        font-weight: 700;
      }

      .cls-6 {
        stroke: url(#linear-gradient-7);
      }

      .cls-15 {
        fill: url(#linear-gradient-4);
      }

      .cls-7 {
        stroke: url(#linear-gradient-10);
      }
    </style>
    <linearGradient id="New_Gradient_Swatch" data-name="New Gradient Swatch" x1=".5" y1="1049.45" x2="2041.2" y2="1049.45" gradientUnits="userSpaceOnUse">
      <stop offset="0" stop-color="#7878ff"/>
      <stop offset="1" stop-color="#130094"/>
    </linearGradient>
    <linearGradient id="linear-gradient" x1="0" y1="1049.45" x2="2041.7" y2="1049.45" gradientUnits="userSpaceOnUse">
      <stop offset="0" stop-color="#fff"/>
      <stop offset="1" stop-color="#000"/>
    </linearGradient>
    <linearGradient id="linear-gradient-2" x1="852.29" y1="1441.06" x2="1163.78" y2="1441.06" gradientUnits="userSpaceOnUse">
      <stop offset="0" stop-color="#fff"/>
      <stop offset="1" stop-color="#000"/>
    </linearGradient>
    <linearGradient id="linear-gradient-3" x1="599.27" y1="672.95" x2="1416.79" y2="672.95" xlink:href="#linear-gradient-2"/>
    <linearGradient id="linear-gradient-4" x1="1161.18" y1="1177.26" x2="1319.64" y2="1177.26" gradientTransform="translate(55.96 -60.17) rotate(2.77)" xlink:href="#linear-gradient-2"/>
    <linearGradient id="linear-gradient-5" x1="1680.87" y1="1152.16" x2="1839.34" y2="1152.16" gradientTransform="translate(2482.76 -60.17) rotate(177.23) scale(1 -1)" xlink:href="#linear-gradient-2"/>
    <linearGradient id="linear-gradient-6" x1="599.27" y1="935.39" x2="1416.79" y2="935.39" xlink:href="#linear-gradient"/>
    <linearGradient id="linear-gradient-7" x1="599.27" y1="935.39" x2="1416.79" y2="935.39" xlink:href="#linear-gradient"/>
    <linearGradient id="linear-gradient-8" x1="599.27" y1="935.39" x2="1416.79" y2="935.39" xlink:href="#linear-gradient"/>
    <linearGradient id="linear-gradient-9" x1="599.27" y1="935.39" x2="1416.79" y2="935.39" xlink:href="#linear-gradient"/>
    <linearGradient id="linear-gradient-10" x1="599.27" y1="935.39" x2="1416.79" y2="935.39" xlink:href="#linear-gradient"/>
    <linearGradient id="linear-gradient-11" x1="599.27" y1="935.39" x2="1416.79" y2="935.39" xlink:href="#linear-gradient"/>
    <linearGradient id="linear-gradient-12" x1="599.27" y1="935.39" x2="1416.79" y2="935.39" xlink:href="#linear-gradient"/>
  </defs>
  <rect class="cls-9" x=".5" y=".5" width="2040.7" height="2097.89"/>
  <text class="cls-19" transform="translate(528.96 1707.64)"><tspan class="cls-8" x="0" y="0">TEL</tspan><tspan class="cls-17" x="158.69" y="0">E</tspan><tspan class="cls-8" x="212.34" y="0">SIS </tspan><tspan class="cls-10" x="389.45" y="0">C</tspan><tspan class="cls-18" x="446.57" y="0">ONSU</tspan><tspan class="cls-16" x="704.46" y="0">L</tspan><tspan class="cls-8" x="747.96" y="0">TING</tspan></text>
  <g>
    <g>
      <g>
        <path class="cls-12" d="M1122.74,1344.92h-229.42c-22.65,0-41.03,9.63-41.03,21.53v40.18c0,11.88,18.38,21.53,41.03,21.53h229.42c22.66,0,41.03-9.64,41.03-21.53v-40.18c0-11.9-18.37-21.53-41.03-21.53ZM1151.75,1491.59c-7.4-3.9-17.69-6.31-29-6.31h-229.42c-22.65,0-41.03,9.63-41.03,21.53,0,5.06,2.4,9.52,7.23,13.31,4.83,3.79,13.26,6.8,25.38,9,12.03,2.19,28.35,4.08,48.89,5.7,20.53,1.58,45.27,2.37,74.25,2.37s55.24-.79,75.16-2.37c19.91-1.62,35.89-3.51,47.98-5.7,12.07-2.21,20.55-5.21,25.38-9,4.82-3.79,7.23-8.25,7.23-13.31,0-5.94-4.6-11.34-12.03-15.22Z"/>
        <rect class="cls-14" x="975.24" y="1213.94" width="65.59" height="20.83"/>
        <path class="cls-14" d="M975.24,1246.54h65.59v3.37c0,5.32-3.87,9.63-8.64,9.63h-48.32c-4.77,0-8.64-4.31-8.64-9.63v-3.37Z"/>
        <path class="cls-14" d="M1192.5,850.71c0,5.36-.25,10.01-.76,13.95-.51,3.94-1.33,7.11-2.48,9.5-1.14,2.39-2.54,4.15-4.19,5.28-1.66,1.13-3.49,1.69-5.51,1.69h-130.07c-4.77,0-8.64,4.31-8.64,9.62v303.27h-65.59v-303.27c0-5.31-3.87-9.62-8.64-9.62h-130.07c-2.02,0-3.87-.56-5.52-1.69-1.66-1.13-2.98-2.89-4-5.28-1.01-2.39-1.84-5.56-2.48-9.5-.64-3.94-.95-8.59-.95-13.95s.31-10.05.95-14.13c.64-4.09,1.47-7.39,2.48-9.93,1.02-2.54,2.34-4.35,4-5.49,1.65-1.13,3.5-1.69,5.52-1.69h343.02c2.02,0,3.86.56,5.51,1.69,1.66,1.13,3.05,2.95,4.19,5.49,1.15,2.54,1.98,5.84,2.48,9.93.51,4.08.76,8.79.76,14.13Z"/>
      </g>
      <path class="cls-13" d="M1388.43,577.61c-18.91-50.38-46.34-93.65-82.31-129.8-35.96-36.15-79.84-64.24-131.64-84.24-51.8-20-110.77-30-176.93-30s-121.57,9.27-171.1,27.83c-49.53,18.56-91.14,45.06-124.85,79.51-33.71,34.45-59.18,76.14-76.45,125.06-17.27,48.91-25.9,103.72-25.9,164.45,0,35.16,2.77,67.57,8.28,97.21,5.52,29.65,12.29,55.92,20.27,78.8,7.97,22.89,16.15,42.03,24.54,57.47,8.39,15.42,14.63,25.54,18.73,30.35,4.08,4.81,7.56,8.2,10.46,10.13,2.89,1.92,6.19,3.48,9.9,4.69,3.71,1.21,8.04,2.05,12.99,2.54,4.95.48,10.74.73,17.34.73,9.49,0,17.32-.37,23.5-1.09,6.19-.73,11.04-1.82,14.54-3.28,3.5-1.45,5.88-3.39,7.13-5.81,1.23-2.42,1.85-5.35,1.85-8.73,0-7.27-3.91-17.22-11.73-29.82-7.83-12.61-16.59-28.72-26.27-48.37-9.68-19.64-18.43-43.38-26.26-71.26-7.82-27.88-11.74-60.48-11.74-97.8,0-44.12,6.67-83.64,20.04-118.53,13.37-34.91,33.1-64.37,59.2-88.36,26.09-23.99,58.57-42.42,97.42-55.25,38.85-12.85,83.56-19.27,134.12-19.27s96.28,6.67,135.96,20c39.68,13.33,73.28,32.13,100.82,56.37,27.55,24.25,48.4,53.48,62.6,87.67,14.17,34.18,21.27,72.15,21.27,113.86,0,38.3-4.01,71.15-12.01,98.57-8.01,27.4-16.83,50.68-26.47,69.84-9.66,19.14-18.49,34.79-26.49,46.91-8.02,12.12-12,21.57-12,28.38,0,3.87.91,7.13,2.77,9.81,1.86,2.67,4.73,4.97,8.64,6.92,3.92,1.94,8.76,3.4,14.53,4.36,5.75.97,12.76,1.46,21,1.46,7.4,0,13.78-.37,19.14-1.09,5.36-.73,9.98-1.69,13.9-2.9,3.91-1.21,7.31-2.77,10.2-4.69,2.88-1.92,7.08-6.15,12.63-12.65,5.54-6.51,12.61-18.2,21.23-35.07,8.6-16.88,16.18-36.17,22.74-57.86,6.56-21.69,12-45.31,16.31-70.85,4.29-25.56,6.45-51.81,6.45-78.8,0-61.22-9.45-117.02-28.36-167.39Z"/>
      <g>
        <path class="cls-15" d="M1236.29,1027.6c-25.86-.71-47.15,54.62-52.92,69.98-40.16,107.04-27.98,222.03-19.02,222.3,6.17.18-3.73-54.46,27.62-123.15,44.48-97.44,138.87-150.51,131.75-160.27-3.84-5.26-28.41,14.1-58.76,4.64-15.84-4.94-18.78-13.22-28.68-13.5Z"/>
        <path class="cls-11" d="M782.13,1027.6c25.86-.71,47.15,54.62,52.92,69.98,40.16,107.04,27.98,222.03,19.02,222.3-6.17.18,3.73-54.46-27.62-123.15-44.48-97.44-138.87-150.51-131.75-160.27,3.84-5.26,28.41,14.1,58.76,4.64,15.84-4.94,18.78-13.22,28.68-13.5Z"/>
      </g>
    </g>
    <g>
      <g>
        <path class="cls-14" d="M1122.74,1344.92h-229.42c-22.65,0-41.03,9.63-41.03,21.53v40.18c0,11.88,18.38,21.53,41.03,21.53h229.42c22.66,0,41.03-9.64,41.03-21.53v-40.18c0-11.9-18.37-21.53-41.03-21.53ZM1151.75,1491.59c-7.4-3.9-17.69-6.31-29-6.31h-229.42c-22.65,0-41.03,9.63-41.03,21.53,0,5.06,2.4,9.52,7.23,13.31,4.83,3.79,13.26,6.8,25.38,9,12.03,2.19,28.35,4.08,48.89,5.7,20.53,1.58,45.27,2.37,74.25,2.37s55.24-.79,75.16-2.37c19.91-1.62,35.89-3.51,47.98-5.7,12.07-2.21,20.55-5.21,25.38-9,4.82-3.79,7.23-8.25,7.23-13.31,0-5.94-4.6-11.34-12.03-15.22Z"/>
        <rect class="cls-14" x="975.24" y="1213.94" width="65.59" height="20.83"/>
        <path class="cls-14" d="M975.24,1246.54h65.59v3.37c0,5.32-3.87,9.63-8.64,9.63h-48.32c-4.77,0-8.64-4.31-8.64-9.63v-3.37Z"/>
        <path class="cls-14" d="M1192.5,850.71c0,5.36-.25,10.01-.76,13.95-.51,3.94-1.33,7.11-2.48,9.5-1.14,2.39-2.54,4.15-4.19,5.28-1.66,1.13-3.49,1.69-5.51,1.69h-130.07c-4.77,0-8.64,4.31-8.64,9.62v303.27h-65.59v-303.27c0-5.31-3.87-9.62-8.64-9.62h-130.07c-2.02,0-3.87-.56-5.52-1.69-1.66-1.13-2.98-2.89-4-5.28-1.01-2.39-1.84-5.56-2.48-9.5-.64-3.94-.95-8.59-.95-13.95s.31-10.05.95-14.13c.64-4.09,1.47-7.39,2.48-9.93,1.02-2.54,2.34-4.35,4-5.49,1.65-1.13,3.5-1.69,5.52-1.69h343.02c2.02,0,3.86.56,5.51,1.69,1.66,1.13,3.05,2.95,4.19,5.49,1.15,2.54,1.98,5.84,2.48,9.93.51,4.08.76,8.79.76,14.13Z"/>
      </g>
      <path class="cls-14" d="M1388.43,577.61c-18.91-50.38-46.34-93.65-82.31-129.8-35.96-36.15-79.84-64.24-131.64-84.24-51.8-20-110.77-30-176.93-30s-121.57,9.27-171.1,27.83c-49.53,18.56-91.14,45.06-124.85,79.51-33.71,34.45-59.18,76.14-76.45,125.06-17.27,48.91-25.9,103.72-25.9,164.45,0,35.16,2.77,67.57,8.28,97.21,5.52,29.65,12.29,55.92,20.27,78.8,7.97,22.89,16.15,42.03,24.54,57.47,8.39,15.42,14.63,25.54,18.73,30.35,4.08,4.81,7.56,8.2,10.46,10.13,2.89,1.92,6.19,3.48,9.9,4.69,3.71,1.21,8.04,2.05,12.99,2.54,4.95.48,10.74.73,17.34.73,9.49,0,17.32-.37,23.5-1.09,6.19-.73,11.04-1.82,14.54-3.28,3.5-1.45,5.88-3.39,7.13-5.81,1.23-2.42,1.85-5.35,1.85-8.73,0-7.27-3.91-17.22-11.73-29.82-7.83-12.61-16.59-28.72-26.27-48.37-9.68-19.64-18.43-43.38-26.26-71.26-7.82-27.88-11.74-60.48-11.74-97.8,0-44.12,6.67-83.64,20.04-118.53,13.37-34.91,33.1-64.37,59.2-88.36,26.09-23.99,58.57-42.42,97.42-55.25,38.85-12.85,83.56-19.27,134.12-19.27s96.28,6.67,135.96,20c39.68,13.33,73.28,32.13,100.82,56.37,27.55,24.25,48.4,53.48,62.6,87.67,14.17,34.18,21.27,72.15,21.27,113.86,0,38.3-4.01,71.15-12.01,98.57-8.01,27.4-16.83,50.68-26.47,69.84-9.66,19.14-18.49,34.79-26.49,46.91-8.02,12.12-12,21.57-12,28.38,0,3.87.91,7.13,2.77,9.81,1.86,2.67,4.73,4.97,8.64,6.92,3.92,1.94,8.76,3.4,14.53,4.36,5.75.97,12.76,1.46,21,1.46,7.4,0,13.78-.37,19.14-1.09,5.36-.73,9.98-1.69,13.9-2.9,3.91-1.21,7.31-2.77,10.2-4.69,2.88-1.92,7.08-6.15,12.63-12.65,5.54-6.51,12.61-18.2,21.23-35.07,8.6-16.88,16.18-36.17,22.74-57.86,6.56-21.69,12-45.31,16.31-70.85,4.29-25.56,6.45-51.81,6.45-78.8,0-61.22-9.45-117.02-28.36-167.39Z"/>
      <g>
        <path class="cls-14" d="M1236.29,1027.6c-25.86-.71-47.15,54.62-52.92,69.98-40.16,107.04-27.98,222.03-19.02,222.3,6.17.18-3.73-54.46,27.62-123.15,44.48-97.44,138.87-150.51,131.75-160.27-3.84-5.26-28.41,14.1-58.76,4.64-15.84-4.94-18.78-13.22-28.68-13.5Z"/>
        <path class="cls-14" d="M782.13,1027.6c25.86-.71,47.15,54.62,52.92,69.98,40.16,107.04,27.98,222.03,19.02,222.3-6.17.18,3.73-54.46-27.62-123.15-44.48-97.44-138.87-150.51-131.75-160.27,3.84-5.26,28.41,14.1,58.76,4.64,15.84-4.94,18.78-13.22,28.68-13.5Z"/>
      </g>
    </g>
    <g>
      <g>
        <path class="cls-3" d="M1122.74,1344.92h-229.42c-22.65,0-41.03,9.63-41.03,21.53v40.18c0,11.88,18.38,21.53,41.03,21.53h229.42c22.66,0,41.03-9.64,41.03-21.53v-40.18c0-11.9-18.37-21.53-41.03-21.53ZM1151.75,1491.59c-7.4-3.9-17.69-6.31-29-6.31h-229.42c-22.65,0-41.03,9.63-41.03,21.53,0,5.06,2.4,9.52,7.23,13.31,4.83,3.79,13.26,6.8,25.38,9,12.03,2.19,28.35,4.08,48.89,5.7,20.53,1.58,45.27,2.37,74.25,2.37s55.24-.79,75.16-2.37c19.91-1.62,35.89-3.51,47.98-5.7,12.07-2.21,20.55-5.21,25.38-9,4.82-3.79,7.23-8.25,7.23-13.31,0-5.94-4.6-11.34-12.03-15.22Z"/>
        <rect class="cls-6" x="975.24" y="1213.94" width="65.59" height="20.83"/>
        <path class="cls-4" d="M975.24,1246.54h65.59v3.37c0,5.32-3.87,9.63-8.64,9.63h-48.32c-4.77,0-8.64-4.31-8.64-9.63v-3.37Z"/>
        <path class="cls-1" d="M1192.5,850.71c0,5.36-.25,10.01-.76,13.95-.51,3.94-1.33,7.11-2.48,9.5-1.14,2.39-2.54,4.15-4.19,5.28-1.66,1.13-3.49,1.69-5.51,1.69h-130.07c-4.77,0-8.64,4.31-8.64,9.62v303.27h-65.59v-303.27c0-5.31-3.87-9.62-8.64-9.62h-130.07c-2.02,0-3.87-.56-5.52-1.69-1.66-1.13-2.98-2.89-4-5.28-1.01-2.39-1.84-5.56-2.48-9.5-.64-3.94-.95-8.59-.95-13.95s.31-10.05.95-14.13c.64-4.09,1.47-7.39,2.48-9.93,1.02-2.54,2.34-4.35,4-5.49,1.65-1.13,3.5-1.69,5.52-1.69h343.02c2.02,0,3.86.56,5.51,1.69,1.66,1.13,3.05,2.95,4.19,5.49,1.15,2.54,1.98,5.84,2.48,9.93.51,4.08.76,8.79.76,14.13Z"/>
      </g>
      <path class="cls-7" d="M1388.43,577.61c-18.91-50.38-46.34-93.65-82.31-129.8-35.96-36.15-79.84-64.24-131.64-84.24-51.8-20-110.77-30-176.93-30s-121.57,9.27-171.1,27.83c-49.53,18.56-91.14,45.06-124.85,79.51-33.71,34.45-59.18,76.14-76.45,125.06-17.27,48.91-25.9,103.72-25.9,164.45,0,35.16,2.77,67.57,8.28,97.21,5.52,29.65,12.29,55.92,20.27,78.8,7.97,22.89,16.15,42.03,24.54,57.47,8.39,15.42,14.63,25.54,18.73,30.35,4.08,4.81,7.56,8.2,10.46,10.13,2.89,1.92,6.19,3.48,9.9,4.69,3.71,1.21,8.04,2.05,12.99,2.54,4.95.48,10.74.73,17.34.73,9.49,0,17.32-.37,23.5-1.09,6.19-.73,11.04-1.82,14.54-3.28,3.5-1.45,5.88-3.39,7.13-5.81,1.23-2.42,1.85-5.35,1.85-8.73,0-7.27-3.91-17.22-11.73-29.82-7.83-12.61-16.59-28.72-26.27-48.37-9.68-19.64-18.43-43.38-26.26-71.26-7.82-27.88-11.74-60.48-11.74-97.8,0-44.12,6.67-83.64,20.04-118.53,13.37-34.91,33.1-64.37,59.2-88.36,26.09-23.99,58.57-42.42,97.42-55.25,38.85-12.85,83.56-19.27,134.12-19.27s96.28,6.67,135.96,20c39.68,13.33,73.28,32.13,100.82,56.37,27.55,24.25,48.4,53.48,62.6,87.67,14.17,34.18,21.27,72.15,21.27,113.86,0,38.3-4.01,71.15-12.01,98.57-8.01,27.4-16.83,50.68-26.47,69.84-9.66,19.14-18.49,34.79-26.49,46.91-8.02,12.12-12,21.57-12,28.38,0,3.87.91,7.13,2.77,9.81,1.86,2.67,4.73,4.97,8.64,6.92,3.92,1.94,8.76,3.4,14.53,4.36,5.75.97,12.76,1.46,21,1.46,7.4,0,13.78-.37,19.14-1.09,5.36-.73,9.98-1.69,13.9-2.9,3.91-1.21,7.31-2.77,10.2-4.69,2.88-1.92,7.08-6.15,12.63-12.65,5.54-6.51,12.61-18.2,21.23-35.07,8.6-16.88,16.18-36.17,22.74-57.86,6.56-21.69,12-45.31,16.31-70.85,4.29-25.56,6.45-51.81,6.45-78.8,0-61.22-9.45-117.02-28.36-167.39Z"/>
      <g>
        <path class="cls-5" d="M1236.29,1027.6c-25.86-.71-47.15,54.62-52.92,69.98-40.16,107.04-27.98,222.03-19.02,222.3,6.17.18-3.73-54.46,27.62-123.15,44.48-97.44,138.87-150.51,131.75-160.27-3.84-5.26-28.41,14.1-58.76,4.64-15.84-4.94-18.78-13.22-28.68-13.5Z"/>
        <path class="cls-2" d="M782.13,1027.6c25.86-.71,47.15,54.62,52.92,69.98,40.16,107.04,27.98,222.03,19.02,222.3-6.17.18,3.73-54.46-27.62-123.15-44.48-97.44-138.87-150.51-131.75-160.27,3.84-5.26,28.41,14.1,58.76,4.64,15.84-4.94,18.78-13.22,28.68-13.5Z"/>
      </g>
    </g>
  </g>
</svg>