<?xml version="1.0" encoding="utf-8"?>
<!-- Generator: Adobe Illustrator 28.2.0, SVG Export Plug-In . SVG Version: 6.00 Build 0)  -->
<svg version="1.1" id="Layer_1" xmlns="http://www.w3.org/2000/svg" xmlns:xlink="http://www.w3.org/1999/xlink" x="0px" y="0px"
	 viewBox="0 0 2000 2000" style="enable-background:new 0 0 2000 2000;" xml:space="preserve">
<style type="text/css">
	.st0{fill:url(#SVGID_1_);}
	.st1{fill:url(#SVGID_00000162343680995481245130000016043555446867953283_);stroke:#FFFFFF;stroke-width:10;stroke-miterlimit:10;}
	.st2{fill:url(#SVGID_00000130630563566124609590000003396100470210968224_);}
	.st3{fill:#FFFFFF;}
	.st4{fill:#1B1464;}
	.st5{fill:#2E3192;stroke:#FFFFFF;stroke-width:8;stroke-linejoin:round;stroke-miterlimit:10;}
</style>
<g id="BG">
	<linearGradient id="SVGID_1_" gradientUnits="userSpaceOnUse" x1="1000.0001" y1="423.0383" x2="1000.0001" y2="1160.7483">
		<stop  offset="0" style="stop-color:#FFA64D"/>
		<stop  offset="0.4728" style="stop-color:#FFA44B"/>
		<stop  offset="0.6431" style="stop-color:#FF9D44"/>
		<stop  offset="0.7644" style="stop-color:#FF9239"/>
		<stop  offset="0.8625" style="stop-color:#FF8128"/>
		<stop  offset="0.9456" style="stop-color:#FF6B13"/>
		<stop  offset="1" style="stop-color:#FF5800"/>
	</linearGradient>
	<path class="st0" d="M1556.8,1000c0,43.9-5.1,86.6-14.7,127.6c-4.2,18.1-9.4,35.9-15.4,53.3H473.3c-6-17.4-11.1-35.2-15.4-53.3
		c-9.6-41-14.7-83.7-14.7-127.6c0-307.5,249.3-556.8,556.8-556.8c78.2,0,152.7,16.1,220.3,45.3h0c5.8,2.5,11.6,5.1,17.3,7.8
		c0,0,0,0,0,0c60.7,28.7,115.3,68,161.6,115.5v0c45.6,46.9,83,101.8,109.9,162.3c1.2,2.6,2.3,5.2,3.4,7.8c2.2,5.1,4.3,10.3,6.4,15.5
		c2.4,6.2,4.7,12.4,6.9,18.6C1545.9,873.7,1556.8,935.6,1556.8,1000z"/>
	
		<linearGradient id="SVGID_00000047051759630002079800000005466573422260174995_" gradientUnits="userSpaceOnUse" x1="1000" y1="1180.9099" x2="1000" y2="604.51">
		<stop  offset="0" style="stop-color:#FFA64D"/>
		<stop  offset="3.927754e-02" style="stop-color:#FCA544"/>
		<stop  offset="0.1046" style="stop-color:#F3A22A"/>
		<stop  offset="0.1837" style="stop-color:#E59E03"/>
		<stop  offset="1" style="stop-color:#FFDF43"/>
	</linearGradient>
	
		<path style="fill:url(#SVGID_00000047051759630002079800000005466573422260174995_);stroke:#FFFFFF;stroke-width:10;stroke-miterlimit:10;" d="
		M1395.5,1000c0,65.2-15.8,126.7-43.7,180.9H648.2c-27.9-54.2-43.7-115.7-43.7-180.9c0-218.4,177.1-395.5,395.5-395.5
		S1395.5,781.6,1395.5,1000z"/>
	<g>
		
			<linearGradient id="SVGID_00000140706594168633610650000005052888238178592702_" gradientUnits="userSpaceOnUse" x1="1000.0002" y1="1175.9102" x2="1000.0002" y2="1561.7998">
			<stop  offset="0" style="stop-color:#6686FF"/>
			<stop  offset="0.4251" style="stop-color:#465EDC"/>
			<stop  offset="0.5411" style="stop-color:#3D52D2"/>
			<stop  offset="0.7488" style="stop-color:#2433B6"/>
			<stop  offset="1" style="stop-color:#00068D"/>
		</linearGradient>
		<path style="fill:url(#SVGID_00000140706594168633610650000005052888238178592702_);" d="M1000,1561.8c-34.8,0-69.6-3.2-103.5-9.5
			c-64.8-12.1-126.4-35.3-183.2-69c-114.7-68.2-201.6-175-244.8-300.7c-0.5-1.5-0.3-3.2,0.7-4.5s2.5-2.1,4.1-2.1h1053.5
			c1.6,0,3.1,0.8,4.1,2.1s1.2,3,0.7,4.5c-31.2,91-85.9,173-158.2,237.3c-43.9,39.1-93.3,70.9-146.9,94.5
			c-55.1,24.3-113.5,39.4-173.6,45c0,0-0.1,0-0.1,0c-7.8,0.7-15.8,1.3-23.9,1.7c0,0-0.1,0-0.1,0
			C1019.1,1561.6,1009.5,1561.8,1000,1561.8z"/>
		<path class="st3" d="M1526.7,1180.9c-31.4,91.5-86,172.2-156.8,235.2c-86.1,76.6-196.3,126.9-317.7,138.2c0,0,0,0,0,0
			c-7.9,0.7-15.8,1.3-23.8,1.7c0,0,0,0,0,0c-9.4,0.5-18.9,0.7-28.4,0.7c-35,0-69.3-3.2-102.6-9.4c-65.2-12.1-126.5-35.7-181.6-68.4
			c-112.5-66.9-199.4-172.3-242.6-298H1526.7 M1526.7,1170.9H473.3c-3.2,0-6.3,1.6-8.1,4.2c-1.9,2.6-2.4,6-1.3,9.1
			c43.6,126.8,131.3,234.6,247,303.4c57.3,34.1,119.5,57.5,184.8,69.7c34.2,6.4,69.3,9.6,104.4,9.6c9.6,0,19.3-0.2,28.8-0.7
			c0.1,0,0.1,0,0.1,0c8.1-0.4,16.2-1,24-1.7c0.1,0,0.1,0,0.2,0c60.7-5.6,119.6-20.9,175.2-45.4c54.1-23.8,103.9-55.9,148.2-95.3
			c72.9-64.8,128.1-147.6,159.6-239.4c1-3.1,0.6-6.4-1.3-9.1C1533,1172.5,1530,1170.9,1526.7,1170.9L1526.7,1170.9z M1526.7,1190.9
			L1526.7,1190.9L1526.7,1190.9L1526.7,1190.9z"/>
	</g>
</g>
<g>
	<g id="tree">
		<path class="st4" d="M1556.8,1000c0,43.9-5.1,86.6-14.7,127.6c-4.2,18.1-9.4,35.9-15.4,53.3c-31.4,91.5-86,172.2-156.8,235.2
			c-86.1,76.7-196.3,127-317.7,138.2c0,0,0,0,0,0c-34.1-2.5-67.2-9.1-99-19.3c15.5,1.7,31.1,2.6,47,2.6c46.8,0,92-7.7,134.7-22.1
			c0,0,0,0,0,0c73.7-24.8,140-69.4,194.5-128.5h0c18.5-20.1,35.6-41.8,51.2-65c28.6-42.6,52-90.1,69-141.2
			c7.8-23.4,14.3-47.6,19.3-72.4c7.1-34.9,11.3-71.1,12.4-108.2c0.2-6.4,0.3-12.9,0.3-19.4c0-10.4-0.2-20.7-0.7-30.9c0,0,0,0,0,0
			c-1-22-3.2-43.6-6.3-64.8c-3-19.7-6.8-39-11.5-57.9c-0.8-3.1-1.6-6.2-2.4-9.3c-0.1-0.4-0.2-0.8-0.3-1.2c-0.2-0.8-0.4-1.7-0.7-2.5
			c-0.8-2.8-1.5-5.5-2.3-8.3c-5.4-19-11.7-37.6-18.8-55.6c-7.1-17.9-14.9-35.3-23.5-52.2c0,0,0,0,0,0c-2.1-4.1-4.2-8.1-6.4-12.1
			c-42.5-78.5-101.4-143.9-171.1-189.7c60.7,28.7,115.3,68,161.6,115.5v0c45.6,46.9,83,101.8,109.9,162.3c1.5,2.4,2.8,5,3.4,7.8
			c2.2,5.1,4.3,10.3,6.4,15.5c2.4,6.2,4.7,12.4,6.9,18.6C1545.9,873.7,1556.8,935.6,1556.8,1000z"/>
		<path class="st4" d="M1510,792c-3.8,4.8-10.4,7.8-13.4,9.2c-8.4,4-22.1,5.2-39.1,4.8c-5-0.1-10.2-0.4-15.7-0.7
			c-29.7-1.8-66.3-6.4-102.1-7.9c-4.1-0.2-8.3-0.3-12.4-0.4h-0.1c-19.8-0.5-39,0.2-56.5,3c-57.6,9.1-91.1,40.6-100.2,49.6
			c-9.7,9.7-17.9,20-24.7,30.2c-0.7,1-1.3,1.9-1.9,2.9c-3.2,4.9-6.1,9.8-8.6,14.6c-6.3,11.5-11,22.5-14.6,31.9
			c-4.2-12.3-6.9-25.1-8-37.5c-0.1-1.5-0.2-3-0.3-4.5c-0.2-3.3-0.3-6.7-0.2-10c0.2-15.9,3.1-30.8,8.7-43.3
			c-11.7,3.3-27.5,8.6-45.3,17c-11.3,5.3-41.8,19.7-65.8,42.2c-70.3,66-60.8,179.5-59.9,187.6c0.5,5.5,2.6,23.9,1.6,24.1
			c-1.1,0.2-5.1-19.2-7.5-33.5c-4.9-29.2-5.7-54.3-6.1-72.1c-1.1-47.4,3.7-93.1,13.9-135.1c21.4-87.6,67.1-153.6,127.8-196.4
			c20.6-14.6,42.8-26.4,66.1-35.5h0c4-1.6,8-3.1,12.1-4.5c36.9-12.8,76.5-18.1,116.6-11.8h0c44.9,7,90.7,28.4,134.4,70.1
			c1,0.9,1.9,1.8,2.9,2.8c1.2,1.1,2.3,2.3,3.5,3.4c11.9,12,23.4,25.2,35.5,36.6c6.8,6.4,13.8,12.3,21.2,17.1
			c11.8,7.6,24.7,12.6,34.6,24.7c0.9,1.1,1.8,2.4,2.6,3.6c1.5,2.4,2.8,5,3.4,7.8c0,0.1,0,0.1,0.1,0.2
			C1513.3,786.1,1512.1,789.3,1510,792z"/>
		<path class="st4" d="M1416.6,707.9c0,2.5-0.5,5.1-1.8,7.2c-3.4,5.3-12.6,2.2-15.9,1.1c-23.1-7.2-67.8-66.2-111.7-93.3
			c-4.4-2.7-8.7-5-12.9-7.1h0c-27.2-13.2-50.4-14-57.6-14.1c-24.1-0.2-44.5,6.1-58,11.6c8.3-18.2,23.3-32.7,39.8-38.3
			c-17.9-12.2-40.3-14.7-62.2-13.4c-39.8,2.2-81.1,16.7-116.5,43.3c-10.7,8-20.8,17.1-30.3,27.4c6.7-7.2,12-18.4,17.8-27.8
			c1.4-2.3,2.8-4.4,4.3-6.4c8.4-11.2,17.5-21.8,27.1-31.6c19.2-19.6,40.7-36,63.3-48.8c38.3-21.6,78.7-30.8,118.3-29.3h0
			c5.8,2.5,11.6,5.1,17.3,7.8c0,0,0,0,0,0c60.7,28.7,115.3,68,161.6,115.5v0c2.2,8.5,3.8,17.5,4.7,27c0.9,9.7,1.1,19.8,2.4,29.3
			c0.7,5.4,1.7,10.6,3.4,15.6c0.6,1.7,1.2,3.4,1.9,5.1c1.2,3.1,2.5,6.1,3.5,9.3c0,0,0,0,0,0C1416.1,701.3,1416.7,704.5,1416.6,707.9
			z"/>
		<path class="st4" d="M1525.7,816.1c-0.3,0.1-0.6,0.3-0.8,0.4c-9.4,4.5-33.5,1.9-58.2,1.5c-1.5,0-3,0-4.6,0h-1.4
			c-10.3,0-20.5,0.5-29.6,2.2c-0.7,0.1-1.4,0.3-2,0.4h0c-8.6,1.8-15.8,4.6-21.8,7.6c0,0,0,0,0,0c-10,5-16.3,10.5-18.7,12.7
			c-5.6,5.2-10.2,10.7-13.7,16c-1.4,2-2.6,4.1-3.8,6c-1.3,2.2-2.4,4.3-3.3,6.3c-0.2,0.4-0.4,0.7-0.5,1.1c-0.3,0.6-0.6,1.2-0.8,1.8
			c-0.2-0.6-0.4-1.2-0.5-1.8c-0.1-0.2-0.1-0.4-0.2-0.6c-1.6-5.7-2.2-11.6-1.9-17.2c0.1-2.1,0.4-4.1,0.8-6v0c0.5-2.7,1.3-5.2,2.3-7.6
			c0.4-1,0.9-2,1.4-3c-2.6,0.4-5.1,1-7.5,1.8c-10.6,3.5-19.8,10.8-27.7,19.1c-0.6,0.6-1.1,1.2-1.7,1.8c0,0,0,0,0,0
			c-7.9,8.6-14.8,18.6-20.4,29.5c-8.4,16.4-13.9,35.2-15.4,55.2c-0.3,4.1-0.4,8.3-0.4,12.6c0-4.5-1.2-9.7-2.4-14.8
			c-0.9-4-1.9-8-2.3-11.7c-0.7-6.6-1.1-13.2-1.2-19.7c0-2.5,0-5.1,0-7.6c0.3-14,2.1-27.6,5.2-40.6v0c0.8-3.6,1.8-7.1,2.9-10.6
			c0.1-0.2,0.1-0.3,0.1-0.5c6.5-20.9,16.7-38.8,29.7-53.5c0,0,0-0.1,0.1-0.1c2.4-2.7,4.9-5.3,7.4-7.8c6-5.9,12.6-11.1,19.5-15.8
			c10.4-6.9,21.5-12.5,33.2-16.7c16.4-5.8,33.8-8.6,51.3-6.4c18.6,2.3,37.2,10.3,54.5,26.2c4.7,4.3,9.3,9.1,14.1,13.3
			c0.9,0.8,1.8,1.5,2.8,2.2c1.9,1.4,3.8,2.8,5.8,3.9c1,0.6,2.1,1.1,3.1,1.6C1521.2,803.7,1523.5,809.9,1525.7,816.1z"/>
		<circle class="st4" cx="1442.5" cy="854.9" r="44.1"/>
	</g>
	<g id="treesmall">
		<g>
			<path class="st4" d="M1380.7,1322.1c-10.8,24.3-24.5,47.2-40.7,68.4h0c-38.5,50.2-91.4,90.1-154.8,112.1
				c-16.7,5.8-33.5,10.1-50.2,13c0,0,0,0,0,0c-11.6,2-23.1,3.3-34.6,4c10-2.4,20-5.3,30-8.8c70-24.2,127.3-70.5,166.5-128.4
				c39.8-58.8,60.9-129.5,57.9-201.5c-0.1-1.8-0.2-3.6-0.3-5.4c0-0.3,0-0.5,0-0.8c-1.5-24.2-5.7-48.4-12.9-72.4
				c-6.2-20.6-14.3-40.1-24.1-58.2c-6-11.2-12.6-21.8-19.8-32c-0.2-0.2-0.3-0.4-0.5-0.7c-0.6-0.8-1.1-1.6-1.7-2.4
				c-0.1-0.2-0.2-0.3-0.3-0.5c-1.8-2.4-3.5-4.8-5.4-7.1c-1.7-2.2-3.5-4.4-5.2-6.6c-0.6-0.7-1.2-1.5-1.8-2.2
				c-0.8-0.9-1.5-1.8-2.3-2.6c-3-3.5-6.1-6.9-9.3-10.3c-2-2.1-4.1-4.3-6.2-6.3c-0.6-0.6-1.2-1.2-1.8-1.7c-2-2-4.1-4-6.2-5.9
				c-1.6-1.5-3.2-2.9-4.8-4.3c-7-6.2-14.2-12-21.7-17.5c-0.6-0.4-1.1-0.8-1.7-1.2c-2.6-1.9-5.3-3.8-8-5.6l0,0
				c-26.2-17.6-55-31.1-85.5-39.8c-7.4-2.1-15-4-22.6-5.5c-3-0.6-5.9-1.2-8.9-1.7c-23.2-4-47-5.4-71.1-4c26.7-6.4,53.3-9.3,79.5-8.8
				c11.4,0.2,22.6,1.1,33.7,2.5c24.2,3.2,47.8,9.2,70.3,17.9c12.7,4.9,25,10.7,36.8,17.2c1.3,0.7,2.7,1.5,4,2.2
				c6.7,3.8,13.2,7.9,19.5,12.2c5.5,3.7,10.9,7.7,16.2,11.8c0.9,0.7,1.9,1.5,2.8,2.2c1.7,1.3,3.4,2.7,5,4.1c2.4,2,4.8,4.1,7.1,6.1
				c1.4,1.2,2.8,2.5,4.1,3.8c3.7,3.4,7.3,6.9,10.8,10.6c5.5,5.6,10.8,11.5,15.9,17.6c1.2,1.4,2.4,2.9,3.6,4.4
				c8.4,10.4,16.1,21.5,23.1,33.1c1,1.6,1.9,3.2,2.8,4.8c8.1,14,15.1,28.8,21.1,44.3c2.7,7.2,5.2,14.5,7.5,21.9
				c7.2,24,11.4,48.2,12.9,72.4c0.3,4.8,0.5,9.6,0.6,14.4C1410.7,1229.9,1400.4,1278.1,1380.7,1322.1z"/>
			<path class="st4" d="M1270.2,962.9c3.8,1.8,7.6,3.3,11.4,4.3c6.1,1.6,12.3,1.9,18.2,5.7c1.6,1.1,3.2,2.4,4.2,4.2
				c2.4,4.3-2.6,8.9-4.3,10.5c-12.1,11.7-65.4,15.4-97.2,32c-23.5,12.3-33.7,30.7-36.4,35.9c-7.8,15.2-10.1,30.8-10.7,41.6
				c-9.4-12.8-14.2-28.4-12.7-41.2c-4.6,3.1-10.7,7.7-17.2,13.9c-4.1,3.9-15.3,14.5-22.6,27.7c-21.4,38.7-2,86.4-0.6,89.7
				c1,2.3,4.3,10,3.9,10.2c-0.4,0.2-4.8-7.6-7.7-13.4c-6-11.9-9.7-22.7-12.3-30.3c-6.8-20.3-10.9-40.8-12.1-60.4
				c-2.6-40.9,8.2-76.1,28.6-103.4c8.1-10.9,17.6-20.4,28.2-28.6c30.8-23.6,71.6-33.7,119.2-9.3
				C1256.8,955.6,1263.5,959.7,1270.2,962.9z"/>
			<path class="st4" d="M1212.3,924.1c1.8,2.1,3.7,4.1,5.8,5.8c3.3,2.6,7.3,4.5,9.6,8.4c0.7,1.1,1.2,2.4,1.1,3.7
				c-0.1,3.3-5,4.7-6.7,5.2c-12.2,3.7-48.1-8.7-74.9-7.5c-19.8,0.9-33.3,9.2-37,11.6c-10.8,7-18.1,15.8-22.5,22.1
				c-1.3-10.3,1.4-21.1,7.2-28.4c-11.3,0-21.8,5.5-31.2,12.5c-22.2,16.6-39.8,42.7-45.8,73.9c1.2-6.3-0.1-14.7,0.5-21.3
				c0.6-7.3,1.8-14.6,3.4-21.7c3.2-14.2,8.2-27.6,14.7-39.8c13.7-25.4,33.8-43.6,57.2-54.4c9.3-4.3,19-7.5,29-9.4
				c28.7-5.7,58.9-0.6,80.6,27.3C1206.3,916,1209.2,920.3,1212.3,924.1z"/>
			<path class="st4" d="M1333.4,998.1c-2.3,2.2-7.1,4.1-13.2,6.1c-1.3,0.4-2.6,0.8-4,1.3c-4.4,1.4-9.3,2.8-14.2,4.4
				c-1,0.3-2.1,0.7-3.1,1c-0.6,0.2-1.2,0.4-1.8,0.6c-5,1.8-9.9,3.8-14.1,6.2c-4.4,2.5-8,5.3-10.9,8.1c-0.3,0.3-0.5,0.5-0.8,0.8
				c0,0,0,0,0,0c-4.6,4.6-7.1,8.7-8.1,10.4c-4.5,7.8-6.2,15.7-7,21c-4.3-6-6.1-13.5-4.9-19.9c-7.2,3.6-12.1,10.5-15.8,17.9
				c-8.6,17.5-11.1,39.4-4.5,60.7c-1.3-4.3-5-9.1-6.8-13.4c-2-4.8-3.7-9.6-5.1-14.5c-2.7-9.8-4-19.8-3.9-29.5
				c0.2-19.6,6.6-36.9,17.2-50.9c0.3-0.5,0.7-0.9,1.1-1.4c4.5-5.7,9.7-10.8,15.3-15.2c5.1-4,10.7-7.4,16.6-9.9
				c1.8-0.8,3.6-1.4,5.5-2c4.5-1.4,9.2-2.2,14.1-2.3c1.5,0,3,0,4.5,0c4.8,0.3,9.8,1.2,14.9,3c1.3,0.4,2.6,0.9,3.9,1.5
				c0.4,0.2,0.8,0.3,1.2,0.5c3.3,1.5,6.5,3.2,9.8,4.5c1.9,0.7,3.7,1.3,5.6,1.7c1.8,0.3,3.5,0.4,5.3,0.8c0.7,0.1,1.4,0.3,2.2,0.6
				c0.5,0.2,1,0.4,1.5,0.7c0.8,0.5,1.5,1.1,2,1.9C1337.1,994.8,1334.3,997.2,1333.4,998.1z"/>
			
				<ellipse transform="matrix(0.6339 -0.7734 0.7734 0.6339 -325.8944 1380.1469)" class="st4" cx="1294.9" cy="1034.3" rx="25.7" ry="24.6"/>
			<path class="st4" d="M1369.4,1009.1c0,1.5-0.2,2.9-0.4,4.3c-0.6,3.4-2,6.7-3.9,9.6c-0.3,0.5-0.6,0.9-0.9,1.3
				c-3.1,4.2-7.4,7.5-12.6,9.2c-13.2,4.6-27.2-2.4-31.1-15.5c-1.3-4.4-1.4-9-0.3-13.3c0-0.2,0.1-0.4,0.1-0.6
				c1.4-5.1,4.3-9.8,8.4-13.3c0.6-0.5,1.2-1,1.8-1.4c2-1.5,4.3-2.7,6.8-3.6c0.4-0.1,0.8-0.3,1.2-0.4c5.5-1.6,11-1.3,15.9,0.6
				c6.6,2.6,11.9,8,14.1,15.3C1369.1,1004,1369.4,1006.5,1369.4,1009.1z"/>
		</g>
		<path class="st4" d="M1403,1045.4c-0.4,5.7-1.2,11.6-2.2,17.5c-0.9,5.4-3.4,12.1-3.9,17.2c1.5-15.2,0.2-29-3.3-40.7
			c-2.3-7.6-5.5-14.3-9.5-19.7c-3.9-5.4-8.7-9.8-14.7-10.6c-0.5-0.1-1-0.1-1.4-0.1c0.5,1.3,0.8,2.8,1,4.4c0.6,4.3,0.2,9.4-1.1,14.4
			c-0.3,1.3-0.7,2.7-1.2,4.1c-0.6-2.2-1.4-4.8-2.6-7.5c-1.5-3.6-3.6-7.4-6.5-10.7c-1.7-2-8.1-9-19.7-10.1
			c-5.3-0.5-11.6,0.2-17.8,1.2c-1.3,0.2-2.6,0.5-3.9,0.7c-5.2,1-10.2,2-14.4,2.7c-2.6,0.4-4.9,0.6-6.7,0.5c-1.3,0-2.4-0.3-3.3-0.7
			c-0.9-0.5-3.6-1.7-3-4.3c0.2-0.7,0.5-1.5,0.9-2.1c0.2-0.3,0.3-0.5,0.5-0.8c2.2-3.1,4.9-4.5,7.4-6.6c1.6-1.3,3.1-2.8,4.6-4.5
			c2.1-2.4,4.2-5.1,6.3-7.7c0.5-0.6,1-1.2,1.4-1.8c4.2-5,8.4-9,12.6-12.2c14.3-10.9,28.4-12,40.7-8c5.5,1.8,10.7,4.5,15.4,8.2
			c6.4,5,11.8,11.7,15.9,20c0.3,0.6,0.6,1.2,0.8,1.8c3.1,6.7,5.3,14.4,6.7,23.2C1403.5,1023,1403.9,1034,1403,1045.4z"/>
		<path class="st4" d="M1263.6,966.6c0.9,3.8,1.6,7.6,1.9,11.4c0.4,6-0.2,12,2,18c0.6,1.6,1.5,3.3,2.8,4.4c3.2,2.7,7.5-1.7,9.1-3.2
			c11.1-10.6,21.6-61.7,39.4-90.9c13.2-21.6,29.4-29.8,34-31.9c13.3-6.2,26.2-7,35-6.7c-9-10.2-20.8-16.2-31.3-15.8
			c7-12.7,18.8-20,31.3-24.7c29.5-11,65.2-8.8,98.5,10.8c-6.7-4-13.8-12.5-20.5-17.5c-7.4-5.5-14.9-10.3-22.6-14.5
			c-15.4-8.4-31.3-14.1-46.8-17c-32.6-6-62.3,1.3-87.1,18.5c-9.9,6.9-18.9,15.2-26.9,24.7c-23.3,27.6-37.2,66-24.2,114.1
			C1259.7,953,1262,959.8,1263.6,966.6z"/>
		<path class="st4" d="M1270.8,938.7c-2.1,3.2-4.3,6.1-6.8,8.7c-3.9,4.1-8.6,7.3-11.3,13c-0.8,1.6-1.4,3.4-1.3,5.1
			c0.1,4.4,5.9,5.5,7.9,5.9c14.4,3,56.6-19.7,88.2-22.4c23.3-2,39.2,7,43.6,9.7c12.7,7.7,21.3,18.4,26.5,26.3
			c1.5-14.2-1.7-28.3-8.5-37.2c13.3-1.8,25.7,3.9,36.8,11.9c26.1,18.8,46.9,51.4,53.9,92.6c-1.4-8.3,0.1-19.9-0.6-28.8
			c-0.8-9.8-2.1-19.5-4-28.8c-3.8-18.7-9.7-36-17.4-51.5c-16.1-32.2-39.8-53.6-67.3-64.4c-11-4.3-22.4-7-34.1-8.1
			c-33.8-3.1-69.4,8.8-94.9,50.1C1277.8,926.8,1274.5,933.1,1270.8,938.7z"/>
		<path class="st4" d="M1413.4,1008.9c-5.2-8.2-11.3-14.9-18-20.1c-0.3-0.2-0.5-0.4-0.8-0.6c-8.3-6.3-17.5-10.2-26.6-11.7
			c-7.1-1.2-14.4-0.9-20.6,3.3c2.6,1.3,4.9,3.5,6.9,6.3c2,2.8,3.7,6.3,4.8,10c-3.9-2.4-9.9-5.4-17.1-6.3c-0.5,0-0.9-0.1-1.4-0.1
			c-1.3-0.1-4.2-0.3-8.1,0.3c-1.2,0.2-2.5,0.5-3.9,0.8c-3.5,0.9-7.4,2.4-11.6,5c-5,3.1-10.2,7.5-15.1,12.2c-0.5,0.5-1,0.9-1.5,1.4
			c-0.5,0.5-1,0.9-1.5,1.4c-0.4,0.4-0.9,0.8-1.3,1.3c-8.2,8.1-15.5,15.7-19.9,16.9c-1.1,0.3-4.2,1.2-5.1-1c-0.3-0.7-0.4-1.5-0.4-2.4
			c0-0.2,0-0.4,0-0.5c0-0.3,0.1-0.6,0.1-0.8c0.4-3.1,1.9-5.7,2.9-8.5c0.7-1.9,1.2-3.9,1.6-6c0.7-3.7,1.1-7.7,1.7-11.5
			c0-0.2,0.1-0.5,0.1-0.7c0.1-0.4,0.1-0.8,0.2-1.1c0.4-2.3,0.9-4.4,1.5-6.5c1.2-4.6,2.9-8.8,4.8-12.6c1.5-3,3.2-5.8,5.1-8.4
			c1.3-1.8,2.8-3.6,4.3-5.2c0.3-0.3,0.6-0.7,1-1h0c3.6-3.7,7.7-6.7,12-9.2c2.6-1.5,5.3-2.8,8.1-3.9c6-2.4,12.2-3.9,18.5-4.5
			c9.4-0.9,18.8,0.4,27.9,4c6.3,2.5,12.5,6.2,18.5,11.1c5,4.1,9.8,9,14.1,14.6c1.7,2.1,3.3,4.3,4.8,6.6c2.8,4.2,5.4,8.6,7.8,13.3
			C1409.4,999,1411,1005.1,1413.4,1008.9z"/>
		<path class="st4" d="M1244.4,914.3c1.5,1.5,3,3.1,4.2,4.8c1.9,2.7,3.2,5.6,6.1,7.8c0.8,0.6,1.7,1.2,2.7,1.4c2.5,0.5,3.6-2.5,4-3.5
			c3.1-7.4-5.4-33.1-3.8-50.5c1.2-12.8,7.7-20.2,9.6-22.2c5.5-5.8,12.2-9.1,17.1-10.9c-7.7-2.7-15.8-2.8-21.3-0.3
			c0.3-7.4,4.7-13.4,10.1-18.3c12.9-11.6,32.9-18.6,56.3-17c-4.7-0.3-11-2.7-15.9-3.4c-5.5-0.9-10.9-1.4-16.3-1.6
			c-10.7-0.4-20.8,0.5-30.1,2.7c-19.3,4.5-33.4,14.5-42.1,27.9c-3.4,5.4-6,11.2-7.8,17.3c-5,17.8-1.9,38.6,18.4,57.7
			C1238.5,908.9,1241.6,911.5,1244.4,914.3z"/>
	</g>
	<path class="st4" d="M1370,1416.1c-86.1,76.7-196.3,127-317.7,138.2c0,0,0,0,0,0c-7.9,0.7-15.8,1.3-23.8,1.7c0,0,0,0,0,0
		c-44.6-1.3-89.4-4.4-131-8.7c-65.2-12.1-126.5-35.7-181.6-68.4c28.1-13.4,84.6-24.4,125.1-28.1c47.8-4.4,61.5,2.7,110.8-1
		c62.2-4.6,85.3-19.1,147.6-35.8c38.5-10.3,130.7-35,197.6-31.6c11.8,0.6,22.8,2.1,32.6,4.7h0c3.7,1,7.2,2.1,10.5,3.4h0
		c4,1.6,7.7,3.4,11.1,5.4C1359.8,1401.3,1366,1408.3,1370,1416.1z"/>
</g>
<g>
	<g id="_x3C_Radial_Repeat_x3E__00000032622752045668785890000001697576020069702569_">
		<g id="Stars_00000046309030075221273090000017893852348223188130_">
			<polygon class="st5" points="480.3,1068.6 508,1053.9 511.6,1022.7 534.2,1044.6 564.9,1038.3 551.2,1066.5 566.6,1093.9 
				535.5,1089.5 514.3,1112.6 508.8,1081.7 			"/>
		</g>
	</g>
	<g id="_x3C_Radial_Repeat_x3E__00000123442072944993339590000000163683783632223404_">
		<g id="Stars_00000181068790644630698730000009390377541758117049_">
			<polygon class="st5" points="498.6,846.9 530,845 546.2,818.2 557.6,847.4 588.2,854.5 564,874.4 566.7,905.7 540.2,888.8 
				511.3,901 519.2,870.6 			"/>
		</g>
	</g>
	<g id="_x3C_Radial_Repeat_x3E__00000054972504715284980250000014726310794687861179_">
		<g id="Stars_00000016778945907026850720000016380678266335465368_">
			<polygon class="st5" points="607.3,652.8 636.5,664.1 662.4,646.3 660.8,677.7 685.6,696.8 655.3,704.9 644.8,734.5 627.7,708.1 
				596.4,707.3 616.1,682.9 			"/>
		</g>
	</g>
	<g id="_x3C_Radial_Repeat_x3E__00000006682890586954854550000008919513276037651848_">
		<g id="Stars_00000061469411133254503330000008408703810117529482_">
			<polygon class="st5" points="786.6,521.2 808.6,543.6 839.5,538.2 825,566 839.7,593.7 808.7,588.5 786.9,611.1 782.3,580 
				754.1,566.2 782.2,552.3 			"/>
		</g>
	</g>
	<g id="_x3C_Radial_Repeat_x3E__00000152222529374677398140000016414204261664504462_">
		<g id="Stars_00000005262320792691114790000003590813339410591131_">
			<polygon class="st5" points="1004.4,475.8 1015.1,505.3 1045.5,513.2 1020.7,532.5 1022.6,563.8 996.6,546.3 967.4,557.7 
				976,527.6 956.1,503.3 987.5,502.2 			"/>
		</g>
	</g>
</g>
</svg>
